<?xml version="1.0" encoding="utf-8"?>
<!DOCTYPE svg PUBLIC "-//W3C//DTD SVG 1.1//EN" "http://www.w3.org/Graphics/SVG/1.1/DTD/svg11.dtd">
<svg version="1.1" xmlns="http://www.w3.org/2000/svg" xmlns:xlink="http://www.w3.org/1999/xlink"
        x="0px" y="0px" viewBox="0 0 81.5 97.8" enable-background="new 0 0 81.5 97.8" xml:space="preserve">
    <g>
        <polygon fill="#4B612C" points="27.7,35.2 69.3,28.4 69.3,14.9 27.7,26.1" />
        <polygon fill="#759C3E" points="80.5,54.4 40.5,58.4 40.5,39.1 80.5,43.1" />
        <polygon fill="#4B612C" points="0.5,20.5 40.5,0.5 40.5,19.8 0.5,31.8" />
        <polygon fill="#4B612C" points="0.5,54.4 40.5,58.4 40.5,39.1 0.5,43.1" />
        <polygon fill="#759C3E" points="61.8,26.2 40.5,19.8 40.5,0.5 61.8,11.1" />
        <polygon fill="#3C4929" points="0.5,31.8 40.5,19.8 61.8,26.2 19.9,34.2" />
        <polygon fill="#759C3E" points="69.3,14.9 80.5,20.5 80.5,31.8 69.3,28.4" />
        <polygon fill="#3C4929" points="40.5,36.8 80.5,31.8 69.3,28.4 27.7,35.2" />
        <polygon fill="#759C3E" points="53.3,62.4 11.7,69.1 11.7,82.7 53.3,71.4" />
        <polygon fill="#759C3E" points="80.5,77.1 40.5,97.1 40.5,77.8 80.5,65.8" />
        <polygon fill="#4B612C" points="19.2,71.4 40.5,77.8 40.5,97.1 19.2,86.4" />
        <polygon fill="#B7CA9D" points="80.5,65.8 40.5,77.8 19.2,71.4 61.1,63.3" />
        <polygon fill="#4B612C" points="11.7,82.7 0.5,77.1 0.5,65.8 11.7,69.1" />
        <polygon fill="#B7CA9D" points="40.5,60.8 0.5,65.8 11.7,69.1 53.3,62.4" />
    </g>
</svg>
